<?xml version="1.0" encoding="utf-8"?>
<!-- Generator: Adobe Illustrator 16.0.0, SVG Export Plug-In . SVG Version: 6.00 Build 0)  -->
<!DOCTYPE svg PUBLIC "-//W3C//DTD SVG 1.1//EN" "http://www.w3.org/Graphics/SVG/1.1/DTD/svg11.dtd">
<svg version="1.1" id="Capa_1" xmlns="http://www.w3.org/2000/svg" xmlns:xlink="http://www.w3.org/1999/xlink" x="0px" y="0px"
	 width="94px" height="94px" viewBox="0 0 94 94" enable-background="new 0 0 94 94" xml:space="preserve">
<g>
	<circle fill-rule="evenodd" clip-rule="evenodd" fill="#56D5D9" cx="47" cy="46.833" r="45.999"/>
	<g>
		<defs>
			<circle id="SVGID_5_" cx="47" cy="46.833" r="45.999"/>
		</defs>
		<clipPath id="SVGID_2_">
			<use xlink:href="#SVGID_5_"  overflow="visible"/>
		</clipPath>
		<path opacity="0.15" clip-path="url(#SVGID_2_)" d="M38.102,70.036L78.33,90.272l21.455-22.796l2.073-15.849l-0.488-14.75
			L76.989,24.809l-2.926,7.071l-1.829,6.461l-9.752,5.973c0,0-9.631,3.779-9.996,3.901c-0.366,0.122-5.12,9.143-5.12,9.143
			L38.102,70.036z"/>
	</g>
	<g>
		<path fill-rule="evenodd" clip-rule="evenodd" fill="#FFFFFF" d="M59.381,47.926c-1.047,7.242-2.083,14.295-3.076,21.354
			c-0.229,1.633-1.053,2.42-2.71,2.413c-4.353-0.018-8.704-0.019-13.055,0.002c-1.724,0.01-2.578-0.746-2.813-2.503
			c-0.945-7.059-1.978-14.106-2.959-21.028c-3.141-0.657-6.208-1.114-9.163-1.964c-3.887-1.119-7.367-3.051-9.645-6.571
			c-2.605-4.026-2.539-8.328-0.952-12.675c0.632-1.729,2.543-2.688,4.208-2.35c1.998,0.405,3.199,1.918,3.119,4.019
			c-0.023,0.61-0.199,1.218-0.329,1.821c-0.804,3.743,0.159,6.159,3.741,7.485c2.979,1.104,6.195,2.004,9.342,2.13
			c7.572,0.311,15.165,0.149,22.749,0.11c3.624-0.019,7.165-0.576,10.465-2.212c3.647-1.808,4.454-3.688,3.732-7.714
			c-0.231-1.29-0.142-2.943,0.508-3.991c0.559-0.9,2.098-1.545,3.255-1.634c1.456-0.112,2.714,0.817,3.259,2.334
			c2.268,6.32,0.961,12.64-4.912,16.625c-4.019,2.728-8.643,3.628-13.355,4.191C60.366,47.819,59.941,47.864,59.381,47.926z"/>
		<path fill-rule="evenodd" clip-rule="evenodd" fill="#FFD380" d="M46.981,39.182c-4.579-0.032-8.479-3.95-8.421-8.456
			c0.059-4.558,3.982-8.44,8.511-8.421c4.55,0.018,8.395,3.907,8.396,8.494C55.47,35.357,51.566,39.214,46.981,39.182z"/>
	</g>
</g>
</svg>
