<?xml version="1.0" encoding="utf-8"?>
<!-- Generator: Adobe Illustrator 16.0.0, SVG Export Plug-In . SVG Version: 6.00 Build 0)  -->
<!DOCTYPE svg PUBLIC "-//W3C//DTD SVG 1.1//EN" "http://www.w3.org/Graphics/SVG/1.1/DTD/svg11.dtd">
<svg version="1.1" id="Capa_1" xmlns="http://www.w3.org/2000/svg" xmlns:xlink="http://www.w3.org/1999/xlink" x="0px" y="0px"
	 width="94px" height="94px" viewBox="0 0 94 94" enable-background="new 0 0 94 94" xml:space="preserve">
<g>
	<circle fill-rule="evenodd" clip-rule="evenodd" fill="#FF7A5A" cx="47" cy="46.833" r="45.999"/>
	<g>
		<defs>
			<circle id="SVGID_7_" cx="47" cy="46.833" r="45.999"/>
		</defs>
		<clipPath id="SVGID_2_">
			<use xlink:href="#SVGID_7_"  overflow="visible"/>
		</clipPath>
		<path opacity="0.15" clip-path="url(#SVGID_2_)" d="M19.856,60.324l65.422,32.509c0,0,12.436-15.44,12.598-16.091
			s5.039-12.842,5.039-13.329s0.487-11.053,0.487-11.053l-1.138-8.777L73.17,28.792l-2.926,3.413l-5.039,4.389
			c0,0-1.138,0.325-2.275,0.325s-7.802-0.488-7.802-0.488s-4.714,1.14-5.852,3.252s-2.439,5.852-3.251,7.314
			c-0.813,1.463,2.438,7.802,2.438,7.802s-6.095-2.521-6.095-1.708s-3.657,4.267-3.657,4.267L19.856,60.324z"/>
	</g>
	<g>
		<path fill="#FFD380" d="M57.827,31.876c3.65,0,6.609-2.959,6.609-6.608c0-3.651-2.959-6.61-6.609-6.61
			c-3.652,0-6.61,2.96-6.61,6.61C51.217,28.917,54.175,31.876,57.827,31.876L57.827,31.876z M57.827,31.876"/>
		<path fill="#FFFFFF" d="M68.7,29.974c-3.796,5.315-8.878,5.932-14.347,2.685c-0.373-0.222-2.024-1.131-2.39-1.347
			c-8.799-5.225-17.586-3.177-23.48,5.078c-2.503,3.511,3.289,6.837,5.766,3.368c3.045-4.266,6.916-5.499,11.15-4.147
			c-2.168,3.763-4.063,7.504-6.738,12.817c-2.676,5.315-8.583,9.56-14.258,6.241c-4.097-2.395-7.791,3.488-3.707,5.876
			c7.75,4.527,16.836,1.747,21.474-4.14c0.161,0.085,0.331,0.162,0.518,0.229c3.789,1.32,8.757,4.835,10.27,6.081
			c1.514,1.245,4.113,7.591,5.656,10.779c1.873,3.868,7.921,1.051,6.041-2.835c-1.749-3.617-4.687-10.837-6.978-12.663
			c-1.837-1.466-5.406-4.191-8.432-5.739c2.047-3.965,4.179-7.889,6.423-11.742c7.153,2.191,13.952-0.392,18.795-7.174
			C76.969,29.831,71.178,26.503,68.7,29.974L68.7,29.974z M68.7,29.974"/>
	</g>
</g>
</svg>
