<?xml version="1.0" encoding="utf-8"?>
<!-- Generator: Adobe Illustrator 16.0.0, SVG Export Plug-In . SVG Version: 6.00 Build 0)  -->
<!DOCTYPE svg PUBLIC "-//W3C//DTD SVG 1.1//EN" "http://www.w3.org/Graphics/SVG/1.1/DTD/svg11.dtd">
<svg version="1.1" id="Capa_1" xmlns="http://www.w3.org/2000/svg" xmlns:xlink="http://www.w3.org/1999/xlink" x="0px" y="0px"
	 width="94px" height="94px" viewBox="0 0 94 94" enable-background="new 0 0 94 94" xml:space="preserve">
<g>
	<circle fill-rule="evenodd" clip-rule="evenodd" fill="#FFD380" cx="47" cy="46.833" r="45.999"/>
	<g>
		<defs>
			<circle id="SVGID_3_" cx="47" cy="46.833" r="45.999"/>
		</defs>
		<clipPath id="SVGID_2_">
			<use xlink:href="#SVGID_3_"  overflow="visible"/>
		</clipPath>
		<polygon opacity="0.15" clip-path="url(#SVGID_2_)" points="38.67,70.768 73.738,87.915 92.024,72.027 95.275,57.236 
			67.968,43.339 71.809,49.495 68.639,52.848 65.713,54.493 60.105,55.59 		"/>
	</g>
	<g>
		<path fill="#FF7A5A" d="M57.369,51.2c0.578-2.938,0.612-5.719,0.683-7.869c0.035-3.112,0.087-5.036,0.087-5.036l0.105,5.054
			c0,2.116,0.035,4.878-0.49,7.834c0,0.665,0.123,1.645-0.14,2.951c-0.769,0.108-1.556,0.215-2.36,0.283
			c0-0.068,0.018-0.122,0.035-0.175C55.831,52.442,56.758,51.673,57.369,51.2L57.369,51.2z"/>
		<path fill="#FF7A5A" d="M56.269,46.653c0.35-2.764,0.245-5.351,0.192-7.362l-0.176-4.668c0,0,0.158,1.784,0.35,4.668
			c0.123,1.994,0.298,4.547-0.035,7.311c0.07,0.77,0.315,1.922-0.068,3.653c-0.438,1.978-1.505,2.939-1.768,3.342
			c-0.121-0.526-0.717-1.907-0.262-3.97C54.869,47.912,55.726,47.126,56.269,46.653L56.269,46.653z"/>
		<path fill="#FF7A5A" d="M54.887,35.339c0.209,1.838,0.489,4.198,0.367,6.785c0.105,0.7,0.401,1.75,0.157,3.393
			c-0.302,1.854-1.206,2.834-1.435,3.219c-0.14-0.491-0.804-1.731-0.506-3.689c0.244-1.609,0.979-2.379,1.469-2.852
			c0.17-2.589-0.053-4.983-0.229-6.855l-0.384-4.32C54.327,31.019,54.555,32.682,54.887,35.339L54.887,35.339z"/>
		<path fill="#FF7A5A" d="M52.963,31.474c0.314,1.681,0.699,3.848,0.735,6.244c0.139,0.646,0.472,1.591,0.349,3.13
			c-0.14,1.714-0.926,2.676-1.102,3.061c-0.175-0.436-0.856-1.539-0.699-3.375c0.123-1.505,0.752-2.272,1.171-2.728
			c0-2.413-0.349-4.617-0.595-6.313l-0.594-3.988L52.963,31.474z"/>
		<path fill="#FF7A5A" d="M50.865,27.716c0.366,1.521,0.856,3.48,1.031,5.684c0.175,0.593,0.542,1.433,0.524,2.85
			c-0.018,1.591-0.683,2.536-0.822,2.903c-0.175-0.402-0.874-1.364-0.856-3.062c0.018-1.397,0.56-2.15,0.909-2.588
			c-0.157-2.22-0.595-4.214-0.927-5.77l-0.77-3.621L50.865,27.716z"/>
		<path fill="#FF7A5A" d="M45.233,34.167c0.892,1.347,1.959,3.149,3.288,5.039c0.612,0.155,1.574,0.417,2.482,1.624
			c1.103,1.486,1.032,2.799,1.103,3.234c-0.354-0.243-1.487-0.733-2.483-2.08c-0.909-1.188-1.137-2.099-1.382-2.693
			c-1.311-1.888-2.308-3.689-3.147-5.036c-1.225-1.977-2.063-3.129-2.063-3.129S43.939,32.227,45.233,34.167L45.233,34.167z"/>
		<path fill="#FF7A5A" d="M42.208,27.471c0,0.017,0.857,1.015,2.064,2.798c0.855,1.259,1.87,2.902,3.147,4.634
			c0.541,0.122,1.451,0.368,2.308,1.469c1.05,1.347,1.015,2.553,1.066,2.974c-0.314-0.229-1.381-0.665-2.343-1.89
			c-0.84-1.084-1.066-1.924-1.312-2.465c-1.224-1.731-2.187-3.395-2.973-4.634C43.013,28.537,42.208,27.487,42.208,27.471
			L42.208,27.471z"/>
		<path fill="#FF7A5A" d="M48.539,24.061c0.419,1.364,0.996,3.13,1.311,5.124c0.193,0.523,0.595,1.276,0.665,2.569
			c0.088,1.451-0.455,2.362-0.56,2.711c-0.175-0.349-0.874-1.188-0.979-2.745c-0.087-1.276,0.35-1.994,0.647-2.431
			c-0.28-2.011-0.822-3.796-1.229-5.194c-0.573-2.011-0.904-3.251-0.904-3.251L48.539,24.061z"/>
		<path fill="#FF7A5A" d="M42.628,19.321c0.42,0.699,2.309,3.637,4.074,7.693c0.367,0.212,1.084,0.595,1.521,1.573
			c0.49,1.191,0.018,1.995-0.053,2.362c-0.35-0.314-1.049-0.699-1.485-1.731c-0.35-0.804-0.245-1.539-0.176-1.978
			c-1.993-4.702-4.004-8.061-3.986-8.078L42.628,19.321z"/>
		<path fill="#FF7A5A" d="M43.239,26.351c0.806,1.137,1.732,2.659,2.922,4.249c0.524,0.106,1.347,0.334,2.15,1.33
			c0.979,1.225,0.962,2.325,1.031,2.693c-0.297-0.192-1.294-0.577-2.168-1.697c-0.804-0.996-1.032-1.766-1.241-2.256
			c-1.172-1.573-2.046-3.112-2.799-4.249c-1.066-1.661-1.836-2.623-1.818-2.623C41.299,23.798,42.121,24.724,43.239,26.351
			L43.239,26.351z"/>
		<path fill="#FF7A5A" d="M42.995,38.539c1.05,1.609,2.343,3.602,3.462,5.928c0.264,0.403,0.525,0.84,0.818,1.349
			c0.896,1.503,1.91,3.463,3.135,5.577c0.122-0.368,0.244-0.682,0.35-0.928c-0.402-1.223-0.875-2.395-1.364-3.48
			c-1.119-1.87-2.011-3.6-2.798-4.966c-1.312-2.309-2.256-3.636-2.256-3.636s1.015,1.276,2.413,3.549
			c0.262,0.438,0.561,0.928,0.856,1.434c-0.227-0.436-0.454-0.838-0.646-1.241l-2.745-5.122c-0.018,0,1.154,1.922,2.938,5.053
			c0.822,1.418,1.801,3.13,2.692,5.071c0.158,0.245,0.298,0.489,0.455,0.718c0.524,0.156,1.329,0.419,2.116,1.206
			c-0.175-0.385-0.332-0.753-0.489-1.118c-0.42-0.334-0.892-0.789-1.313-1.4c-0.926-1.313-1.171-2.289-1.416-2.92
			c-1.347-2.064-2.396-4.006-3.27-5.475c-1.276-2.15-2.169-3.375-2.169-3.393c0,0,0.962,1.189,2.308,3.306
			c0.944,1.451,2.047,3.409,3.446,5.474c0.14,0.034,0.279,0.07,0.419,0.122c-1.032-2.187-1.626-3.479-1.608-3.479l1.818,3.55
			c0.595,0.227,1.329,0.665,1.994,1.591c1.154,1.627,1.031,3.044,1.084,3.533c-0.14-0.124-0.42-0.28-0.787-0.525
			c0.297,0.63,0.577,1.259,0.875,1.94c0.297,0.543,0.488,1.052,0.611,1.505c0.333,0.857,0.63,1.749,0.892,2.693
			c-0.14,0-0.297,0.018-0.437,0.034c-0.105-0.331-0.193-0.662-0.28-0.979v0.141c-0.279-0.229-1.014-0.63-1.801-1.437
			c0.122,0.28,0.262,0.597,0.385,0.928c0.349,0.316,0.717,0.699,1.066,1.26c0.017,0.036,0.052,0.087,0.07,0.121
			c-1.119,0.073-2.273,0.124-3.428,0.124c-0.28-1.154-0.245-2.064-0.105-2.78c-0.367-0.648-0.699-1.26-1.031-1.871
			c0.524,2.01,0.087,3.427,0.053,3.952c-0.438-0.455-1.854-1.521-2.588-3.864c-0.613-1.924-0.193-3.166,0.087-3.936
			c-1.206-2.974-2.78-5.525-3.987-7.52l-2.815-4.635C40.005,33.992,41.177,35.724,42.995,38.539L42.995,38.539z"/>
		<path fill="#FF7A5A" d="M37.259,50.221c-2.763-1.888-4.546-2.902-4.546-2.902s1.854,0.926,4.669,2.729
			c1.801,1.152,3.987,2.726,6.522,4.318c-0.28-0.036-0.56-0.052-0.839-0.088C40.827,52.791,38.868,51.322,37.259,50.221
			L37.259,50.221z"/>
		<path fill="#FF7A5A" d="M39.516,53.718c-0.175-0.034-0.333-0.068-0.49-0.104c-2.326-1.644-3.812-2.481-3.812-2.481
			S36.909,51.986,39.516,53.718L39.516,53.718z"/>
		<path fill="#FF7A5A" d="M41.089,50.659c-2.676-1.609-4.914-3.24-6.715-4.442c-2.623-1.714-4.319-2.642-4.302-2.642
			c-0.018,0,1.731,0.84,4.407,2.483c1.871,1.154,4.197,2.765,6.907,4.354c0.821-0.141,2.168-0.331,3.97,0.665
			c2.186,1.206,2.833,2.85,3.147,3.358c-0.56-0.122-2.238-0.122-4.215-1.225C42.506,52.232,41.719,51.253,41.089,50.659
			L41.089,50.659z"/>
		<path fill="#FF7A5A" d="M27.257,39.886c0,0.017,1.627,0.77,4.145,2.274c1.766,1.066,3.952,2.518,6.506,3.952
			c0.77-0.141,2.028-0.351,3.707,0.541c2.063,1.084,2.692,2.589,3.008,3.061c-0.525-0.104-2.081-0.07-3.952-1.066
			c-1.679-0.874-2.431-1.766-3.043-2.309c-2.501-1.435-4.635-2.938-6.33-4.022C28.849,40.743,27.257,39.902,27.257,39.886
			L27.257,39.886z"/>
		<path fill="#FF7A5A" d="M38.729,35.2c1.259,1.712,2.886,3.916,4.231,6.592c0.525,0.647,1.417,1.522,2.116,3.305
			c0.77,1.995,0.42,3.48,0.42,4.006c-0.437-0.403-1.818-1.295-2.641-3.429c-0.682-1.731-0.386-2.92-0.175-3.655
			c-1.312-2.674-2.903-4.948-4.127-6.731l-2.833-4.145L38.729,35.2z"/>
		<path fill="#FF7A5A" d="M34.27,32.068c1.259,1.505,2.885,3.445,4.284,5.806c0.524,0.577,1.398,1.332,2.15,2.939
			c0.857,1.782,0.63,3.164,0.665,3.653c-0.42-0.349-1.748-1.082-2.658-2.988c-0.734-1.557-0.542-2.659-0.385-3.358
			c-1.363-2.396-2.973-4.389-4.196-5.964l-2.852-3.637L34.27,32.068z"/>
		<path fill="#FF7A5A" d="M29.635,29.185c1.225,1.311,2.851,2.972,4.285,5.054c0.507,0.472,1.381,1.101,2.168,2.518
			c0.909,1.591,0.786,2.886,0.856,3.305c-0.401-0.279-1.661-0.854-2.623-2.535c-0.786-1.399-0.682-2.413-0.595-3.061
			c-1.416-2.1-3.008-3.812-4.214-5.176c-1.767-1.94-2.833-3.165-2.833-3.165L29.635,29.185z"/>
		<path fill="#FF7A5A" d="M20.332,26.928c0.874,0.56,4.617,2.886,8.831,6.507c0.542,0.034,1.573,0.103,2.605,0.979
			c1.189,1.066,1.084,2.202,1.207,2.675c-0.56-0.192-1.557-0.244-2.623-1.189c-0.84-0.716-1.119-1.592-1.277-2.116
			c-4.844-4.232-8.971-6.958-8.936-6.994L20.332,26.928z"/>
		<path fill="#FF7A5A" d="M24.879,34.465c1.521,0.856,3.427,2.082,5.63,3.217c0.648-0.122,1.714-0.297,3.166,0.402
			c1.783,0.876,2.378,2.099,2.658,2.483c-0.455-0.068-1.784,0.02-3.41-0.786c-1.451-0.699-2.116-1.435-2.641-1.888
			c-2.186-1.172-4.021-2.414-5.491-3.288c-2.116-1.329-3.497-2.012-3.497-2.012S22.71,33.205,24.879,34.465L24.879,34.465z"/>
		<path fill="#FF7A5A" d="M24.337,36.232c-0.018,0.017,1.504,0.699,3.864,2.063c1.644,0.962,3.689,2.292,6.085,3.568
			c0.718-0.124,1.854-0.334,3.428,0.453c1.924,0.98,2.553,2.343,2.833,2.764c-0.472-0.088-1.923-0.018-3.673-0.91
			c-1.556-0.77-2.273-1.591-2.85-2.08c-2.344-1.294-4.319-2.659-5.91-3.639C25.806,37.019,24.319,36.249,24.337,36.232
			L24.337,36.232z"/>
		<path fill="#FFFFFF" d="M73.86,50.64c-0.158,3.955-1.504,8.256-3.585,12.226c0,0-4.949,10.019-20.478,10.019
			c-15.546,0-20.583-9.932-20.583-9.932c-2.08-3.988-3.34-8.255-3.497-12.313h0.018c-0.018-0.103-0.018-0.209-0.018-0.313
			c0-1.905,1.172-3.69,3.218-5.229l2.151,1.382c-1.329,0.893-2.116,1.906-2.116,2.973c0,3.743,9.321,6.785,20.827,6.785
			c11.488,0,20.81-3.042,20.81-6.785c0-2.605-4.477-4.86-11.035-5.998l0.036-2.728c8.394,1.644,14.252,5.316,14.252,9.601
			C73.86,50.431,73.86,50.537,73.86,50.64L73.86,50.64z"/>
		<path fill="#FFFFFF" d="M73.86,50.64"/>
	</g>
</g>
</svg>
