<?xml version="1.0" encoding="utf-8"?>
<!-- Generator: Adobe Illustrator 16.0.0, SVG Export Plug-In . SVG Version: 6.00 Build 0)  -->
<!DOCTYPE svg PUBLIC "-//W3C//DTD SVG 1.1//EN" "http://www.w3.org/Graphics/SVG/1.1/DTD/svg11.dtd">
<svg version="1.1" id="Capa_1" xmlns="http://www.w3.org/2000/svg" xmlns:xlink="http://www.w3.org/1999/xlink" x="0px" y="0px"
	 width="94px" height="94px" viewBox="0 0 94 94" enable-background="new 0 0 94 94" xml:space="preserve">
<g>
	<circle fill-rule="evenodd" clip-rule="evenodd" fill="#00B7A5" cx="47" cy="46.833" r="46"/>
	<g>
		<defs>
			<circle id="SVGID_9_" cx="47" cy="46.833" r="46"/>
		</defs>
		<clipPath id="SVGID_2_">
			<use xlink:href="#SVGID_9_"  overflow="visible"/>
		</clipPath>
		<polygon opacity="0.14" clip-path="url(#SVGID_2_)" points="45.7,70.24 78.208,86.656 103.402,45.046 64.229,25.054 		"/>
	</g>
	<path fill-rule="evenodd" clip-rule="evenodd" fill="#FFD380" d="M29.608,53.335c0,0,5.608,4.389,5.771,4.876
		c0.162,0.488,7.639,4.714,7.639,4.714s7.802-3.251,8.777-4.714c0.975-1.463,9.184-8.776,9.184-9.833
		c0-1.058-2.113-7.07-3.007-7.721c-0.894-0.651-6.176-2.602-6.745-2.926c-0.569-0.325-5.446-4.064-6.421-5.364
		s-6.013-6.177-6.013-6.177s-4.958,1.707-5.852,3.495c-0.895,1.787-1.951,5.77-3.169,7.151c-1.219,1.382-2.764,4.145-3.496,4.552
		c-0.731,0.406-1.95,1.3-2.519,1.543c-0.568,0.244-2.113,0.244-2.113,0.244l2.113,6.909"/>
	<path fill-rule="evenodd" clip-rule="evenodd" fill="#FFFFFF" d="M22.434,48.094c0.844-0.149,1.101-0.271,1.317-0.22
		c4.002,0.968,5.95-1.078,6.934-4.638c0.158-0.575,0.562-1.082,1.06-2.008c0.565,2.583,1.031,4.731,1.502,6.878
		c0.475,2.172,0.952,4.341,1.553,7.084c1.228-6.429,2.352-12.311,3.476-18.19c0.14,0.004,0.281,0.01,0.422,0.014
		c0.878,7.944,1.757,15.892,2.635,23.836c0.121,0.016,0.243,0.028,0.365,0.042c1.027-3.292,2.059-6.585,3.083-9.878
		c0.209-0.667,0.345-1.362,0.607-2.008c0.415-1.023,0.74-2.715,1.404-2.874c1.448-0.351,3.084,0.117,4.646,0.185
		c0.674,0.028,1.458,0.064,1.989-0.246c0.246-0.145,0.208-1.487-0.059-1.634c-0.525-0.288-1.311-0.202-1.969-0.116
		c-0.714,0.091-1.396,0.474-2.108,0.529c-1.2,0.092-2.413,0.024-3.772,0.024c-1.09,3.471-2.167,6.894-3.243,10.316
		c-0.144-0.006-0.288-0.012-0.433-0.019c-0.959-8.637-1.919-17.271-2.878-25.907c-0.122-0.014-0.244-0.028-0.366-0.042
		c-1.224,6.435-2.447,12.869-3.671,19.301c-0.124,0.021-0.248,0.04-0.372,0.06c-0.789-3.517-1.577-7.034-2.476-11.048
		c-1.222,2.644-2.397,4.85-3.266,7.172c-0.689,1.836-1.817,2.235-3.628,2.143c-2.618-0.136-2.976-0.07-3.392-1.964
		c-0.064-0.295-0.13-0.638-0.208-1.036c-1.58-8.248,2.316-15.903,9.605-18.812c2.922-1.168,5.938-1.406,8.982-0.566
		c3.784,1.046,5.911,3.725,7.038,7.913c1.25-4.958,4.152-7.647,8.649-8.26c7.581-1.032,14.72,3.871,16.588,11.342
		c1.574,6.299,0.148,12.146-3.297,17.509c-5.004,7.79-12.177,13.09-20.278,17.271c-1.946,1.004-3.672,0.057-5.213-0.863
		c-6.264-3.74-12.213-7.93-16.642-13.854c-1.319-1.764-2.396-3.706-3.577-5.739C23.116,49.23,22.783,48.665,22.434,48.094z"/>
</g>
</svg>
