<?xml version="1.0" encoding="utf-8"?>
<!-- Generator: Adobe Illustrator 16.0.0, SVG Export Plug-In . SVG Version: 6.00 Build 0)  -->
<!DOCTYPE svg PUBLIC "-//W3C//DTD SVG 1.1//EN" "http://www.w3.org/Graphics/SVG/1.1/DTD/svg11.dtd">
<svg version="1.1" id="Capa_1" focusable="false" xmlns="http://www.w3.org/2000/svg" xmlns:xlink="http://www.w3.org/1999/xlink"
	 x="0px" y="0px" width="595.281px" height="841.891px" viewBox="0 0 595.281 841.891" enable-background="new 0 0 595.281 841.891"
	 xml:space="preserve">
<path fill="#FFFFFF" d="M269.687,421.438L46.06,197.811c-15.457-15.456-15.457-40.45,0-55.742l37.162-37.162
	c15.457-15.456,40.45-15.456,55.742,0L297.476,263.42l158.512-158.513c15.457-15.456,40.451-15.456,55.742,0l37.49,36.998
	c15.457,15.456,15.457,40.45,0,55.742L325.593,421.274C310.136,436.895,285.144,436.895,269.687,421.438L269.687,421.438z
	 M325.593,737.147L549.22,513.52c15.457-15.456,15.457-40.45,0-55.742l-37.162-37.162c-15.455-15.456-40.449-15.456-55.742,0
	L297.64,578.965L139.128,420.452c-15.457-15.457-40.45-15.457-55.742,0L46.06,457.614c-15.457,15.456-15.457,40.45,0,55.742
	l223.627,223.627C285.144,752.604,310.136,752.604,325.593,737.147z"/>
</svg>
