<?xml version="1.0" encoding="utf-8"?>
<!-- Generator: Adobe Illustrator 16.0.0, SVG Export Plug-In . SVG Version: 6.00 Build 0)  -->
<!DOCTYPE svg PUBLIC "-//W3C//DTD SVG 1.1//EN" "http://www.w3.org/Graphics/SVG/1.1/DTD/svg11.dtd">
<svg version="1.1" id="Capa_1" xmlns="http://www.w3.org/2000/svg" xmlns:xlink="http://www.w3.org/1999/xlink" x="0px" y="0px"
	 width="503.957px" height="121.149px" viewBox="0 0 503.957 121.149" enable-background="new 0 0 503.957 121.149"
	 xml:space="preserve">
<g>
	<path fill="#FFFFFF" d="M5.145,84.44c1.901-26.481,2.852-46.861,2.852-61.141l-0.05-6.381c5.775,0.066,9.637,0.099,11.584,0.099
		c0.891,0,4.439-0.032,10.644-0.099c-0.597,7.42-1.077,14.444-1.44,21.073c-0.464,9.234-0.795,17.866-0.994,25.896
		c-0.199,8.031-0.298,14.882-0.298,20.554l-10.136-0.099C15.33,84.341,11.275,84.375,5.145,84.44z"/>
	<path fill="#FFFFFF" d="M39.623,84.44l0.989-10.388l1.929-35.22l0.544-14.197v-7.717c5.12,0.066,9.645,0.099,13.576,0.099
		c2.807,0,6.753-0.032,11.841-0.099l21.116,38.401l2.911,5.642c0.372-5.542,0.752-13.311,1.142-23.307
		c0.389-9.997,0.583-16.908,0.583-20.735c4.052,0.066,7.297,0.099,9.735,0.099c1.12,0,4.349-0.032,9.686-0.099l-1.187,14.741
		l-2.226,40.958l-0.297,11.823c-4.291-0.066-8.3-0.099-12.029-0.099c-3.103,0-7.393,0.033-12.87,0.099
		c-1.713-3.232-2.981-5.575-3.804-7.027l-8.3-14.104c-2.734-4.618-5.253-9.04-7.559-13.263c-1.515-2.672-3.079-5.608-4.693-8.808
		l-1.064,23.457L59.14,84.44c-4.085-0.066-7.198-0.099-9.339-0.099C47.989,84.341,44.597,84.375,39.623,84.44z"/>
	<path fill="#FFFFFF" d="M122.827,84.44c0.73-7.519,1.228-13.537,1.494-18.056c0.398-6.728,0.796-15.434,1.194-26.119
		c0.298-8.178,0.448-14.031,0.448-17.561v-5.788c3.857,0.099,7.187,0.148,9.989,0.148c2.704,0,6.248-0.074,10.632-0.223
		c4.385-0.148,8.506-0.223,12.364-0.223c4.417,0,8.292,0.264,11.621,0.792c3.33,0.528,6.438,1.616,9.322,3.265
		c2.884,1.649,5.299,3.809,7.245,6.48c1.944,2.671,3.429,5.796,4.45,9.374c1.022,3.579,1.534,7.264,1.534,11.056
		c0,3.727-0.396,7.313-1.187,10.759c-0.792,3.446-1.897,6.554-3.314,9.324c-1.418,2.771-3.076,5.153-4.972,7.148
		c-1.896,1.996-4.064,3.703-6.505,5.12c-1.814,1.056-3.644,1.88-5.491,2.473c-1.847,0.594-4.37,1.072-7.568,1.435
		c-3.562,0.396-7.602,0.594-12.12,0.594l-19.984-0.148C130.099,84.292,127.048,84.341,122.827,84.44z M144.213,69.551
		c1.813,0.166,3.708,0.248,5.686,0.248c3.361,0,6.36-0.297,8.998-0.891c2.637-0.594,4.952-1.863,6.946-3.809
		c1.994-1.945,3.469-4.443,4.425-7.494c0.955-3.05,1.434-6.175,1.434-9.374c0-3.924-0.709-7.23-2.127-9.918
		c-1.418-2.688-3.307-4.559-5.664-5.615c-2.358-1.055-5.565-1.583-9.621-1.583c-2.375,0-5.178,0.099-8.41,0.297L144.213,69.551z"/>
	<path fill="#FFFFFF" d="M204.063,16.918c5.142,0.066,8.767,0.099,10.876,0.099c2.637,0,6.147-0.032,10.531-0.099l-1.472,21.023
		c-0.294,3.958-0.516,7.667-0.663,11.13c-0.146,3.463-0.22,5.854-0.22,7.173c0,2.507,0.181,4.601,0.543,6.282
		c0.363,1.682,1.022,3.109,1.977,4.279c0.956,1.171,2.282,2.053,3.979,2.647c1.697,0.593,3.467,0.89,5.313,0.89
		c1.582,0,3.065-0.216,4.449-0.647c1.087-0.354,2.059-0.844,2.916-1.473c0.757-0.589,1.417-1.277,1.977-2.062
		c0.692-0.942,1.301-2.12,1.829-3.534c0.527-1.335,0.922-3.063,1.188-5.184c0.295-2.159,0.691-7.068,1.188-14.726
		c0.428-6.519,0.758-12.487,0.99-17.906c0.197-5.262,0.379-7.893,0.543-7.893c4.98,0,8.904,0,11.773,0h10.041l-2.404,35.122
		c-0.033,0.66-0.049,1.204-0.049,1.632c-0.133,6.86-0.553,11.699-1.264,14.519c-0.709,2.82-1.887,5.268-3.537,7.346
		c-1.648,2.078-4.057,3.95-7.225,5.615c-3.166,1.666-6.762,2.844-10.787,3.537c-4.024,0.692-8.098,1.039-12.221,1.039
		c-3.695,0-7.258-0.264-10.688-0.792c-3.167-0.527-6.021-1.294-8.561-2.3c-2.54-1.005-4.75-2.184-6.63-3.537
		c-1.716-1.253-3.036-2.531-3.959-3.834c-0.924-1.302-1.649-2.86-2.177-4.674c-0.594-2.044-0.891-4.237-0.891-6.579
		c0-0.792,0.032-1.987,0.099-3.586c0.066-1.599,0.215-3.899,0.447-6.901l0.646-7.915c0.165-2.078,0.347-5.127,0.546-9.151
		L204.063,16.918z"/>
	<path fill="#FFFFFF" d="M280.825,84.44l0.891-11.724l1.237-25.97l0.595-18.847c0.032-1.714,0.05-3.445,0.05-5.194
		c0-1.286-0.018-3.215-0.05-5.788c4.221,0.066,7.65,0.099,10.288,0.099c2.11,0,5.045-0.049,8.805-0.148
		c3.76-0.099,6.743-0.148,8.953-0.148c4.551,0,7.898,0.33,10.042,0.989c2.274,0.726,4.27,1.863,5.984,3.413
		c1.715,1.55,3.018,3.413,3.908,5.59c0.989,2.441,1.484,5.063,1.484,7.865c0,4.254-1.063,8.121-3.19,11.6
		c-2.128,3.479-5.07,6.077-8.83,7.791c-3.76,1.715-7.932,2.572-12.516,2.572c-2.243,0-4.634-0.23-7.173-0.692
		c-0.726-3.43-1.55-6.645-2.473-9.646c2.039,0.429,4.063,0.643,6.068,0.643c2.73,0,5.1-0.412,7.105-1.236
		c2.007-0.824,3.603-2.168,4.787-4.032c1.184-1.863,1.776-3.965,1.776-6.307c0-1.385-0.248-2.654-0.74-3.809
		c-0.494-1.154-1.21-2.078-2.147-2.771c-0.938-0.692-1.975-1.163-3.109-1.41c-1.135-0.248-2.756-0.371-4.861-0.371
		c-1.843,0-3.701,0.033-5.576,0.099c-1.875,0.066-3.537,0.099-4.985,0.099c-0.393,6.464-0.688,12.647-0.884,18.55l-0.59,18.896
		c-0.197,6.695-0.295,11.608-0.295,14.741c0,1.187,0.016,2.902,0.049,5.145l-7.178-0.099
		C287.326,84.341,284.85,84.375,280.825,84.44z"/>
	<path fill="#FFFFFF" d="M331.429,84.44c3.432-6.067,7.457-13.57,12.077-22.507l13.018-24.981
		c4.058-7.717,7.424-14.395,10.097-20.034c4.286,0.066,7.32,0.099,9.101,0.099c3.132,0,6.199-0.032,9.199-0.099l7.068,20.232
		l15.374,41.849l2.125,5.441l-7.41-0.099c-1.713,0-4.594,0.033-8.644,0.099c-0.794-2.935-2.041-6.892-3.743-11.872
		c-1.702-4.979-3.147-9.019-4.338-12.12h-26.03c-3.855,7.849-7.613,15.847-11.271,23.992l-8.063-0.099
		C338.47,84.341,335.618,84.375,331.429,84.44z M363.722,50.16h18.954l-7.783-22.896l-4.003,8.326L363.722,50.16z"/>
	<path fill="#FFFFFF" d="M414.929,83.006c-0.264-5.012-0.61-9.102-1.038-12.268c6.463,2.936,12.333,4.402,17.609,4.402
		c2.11,0,4.081-0.322,5.912-0.965c1.83-0.643,3.182-1.549,4.056-2.72c0.874-1.17,1.312-2.481,1.312-3.933
		c0-1.121-0.211-2.127-0.631-3.017c-0.631-1.22-1.682-2.49-3.152-3.809c-1.885-1.813-5.248-4.798-10.09-8.954
		c-2.307-2.011-3.899-3.446-4.776-4.304c-1.979-1.88-3.496-3.569-4.551-5.07c-1.056-1.5-1.814-2.993-2.275-4.477
		c-0.463-1.484-0.692-3.067-0.692-4.749c0-3.1,0.865-6.01,2.597-8.731s4.319-4.848,7.767-6.381c3.445-1.533,7.791-2.3,13.034-2.3
		c4.716,0,10.024,0.578,15.929,1.731c0.164,3.43,0.494,7.354,0.989,11.773c-5.135-1.979-9.874-2.968-14.219-2.968
		c-3.227,0-5.867,0.734-7.924,2.201c-2.058,1.468-3.086,3.175-3.086,5.12c0,0.528,0.071,1.081,0.215,1.657
		c0.144,0.577,0.358,1.138,0.646,1.682c0.287,0.544,0.798,1.254,1.533,2.127c0.734,0.875,1.811,1.897,3.228,3.067
		c1.416,1.171,2.626,2.119,3.63,2.844l6.104,5.54c1.546,1.286,2.929,2.54,4.147,3.76c1.218,1.22,2.263,2.391,3.135,3.512
		c0.872,1.122,1.555,2.193,2.049,3.215c0.494,1.022,0.864,2.07,1.111,3.141c0.247,1.072,0.37,2.201,0.37,3.388
		c0,2.771-0.643,5.384-1.929,7.841c-1.286,2.457-3.134,4.477-5.541,6.06s-5.045,2.68-7.914,3.29s-5.904,0.915-9.103,0.915
		c-2.11,0-4.567-0.182-7.37-0.544C423.207,84.72,419.513,84.028,414.929,83.006z"/>
</g>
<g>
	<path fill="#FFFFFF" d="M289.899,94.502c0,0.182-0.01,0.339-0.028,0.473c-0.02,0.134-0.053,0.242-0.101,0.323
		s-0.103,0.141-0.165,0.179c-0.063,0.039-0.127,0.058-0.193,0.058h-6.791v6.303h6.419c0.066,0,0.131,0.017,0.193,0.05
		c0.062,0.034,0.116,0.088,0.164,0.165c0.048,0.077,0.081,0.179,0.101,0.308s0.028,0.294,0.028,0.494
		c0,0.182-0.009,0.337-0.028,0.466s-0.053,0.234-0.101,0.315c-0.048,0.082-0.103,0.144-0.164,0.187
		c-0.063,0.043-0.127,0.064-0.193,0.064h-6.419v7.722c0,0.066-0.019,0.131-0.057,0.193s-0.105,0.109-0.201,0.143
		c-0.095,0.033-0.22,0.063-0.372,0.086c-0.153,0.024-0.354,0.036-0.602,0.036c-0.229,0-0.425-0.012-0.588-0.036
		c-0.162-0.023-0.291-0.053-0.387-0.086s-0.162-0.08-0.2-0.143s-0.058-0.127-0.058-0.193V94.445c0-0.373,0.098-0.633,0.294-0.781
		c0.195-0.148,0.403-0.222,0.623-0.222h8.338c0.066,0,0.131,0.019,0.193,0.057c0.063,0.039,0.117,0.101,0.165,0.187
		s0.081,0.198,0.101,0.336C289.889,94.161,289.899,94.321,289.899,94.502z"/>
	<path fill="#FFFFFF" d="M300.824,111.637c0,0.114-0.038,0.2-0.115,0.258c-0.076,0.058-0.181,0.101-0.314,0.129
		s-0.33,0.043-0.588,0.043c-0.248,0-0.446-0.015-0.595-0.043c-0.147-0.028-0.255-0.071-0.322-0.129
		c-0.066-0.058-0.1-0.144-0.1-0.258v-1.29c-0.564,0.602-1.191,1.07-1.884,1.404c-0.693,0.335-1.426,0.502-2.199,0.502
		c-0.679,0-1.292-0.089-1.841-0.266c-0.55-0.176-1.018-0.432-1.404-0.766c-0.387-0.334-0.688-0.745-0.902-1.232
		c-0.215-0.487-0.322-1.041-0.322-1.662c0-0.726,0.147-1.356,0.443-1.891c0.296-0.535,0.722-0.979,1.275-1.332
		s1.232-0.618,2.034-0.795c0.803-0.176,1.705-0.265,2.708-0.265h1.776v-1.003c0-0.497-0.053-0.936-0.157-1.318
		c-0.105-0.382-0.275-0.7-0.509-0.953c-0.234-0.253-0.537-0.444-0.91-0.573c-0.372-0.129-0.831-0.193-1.375-0.193
		c-0.583,0-1.105,0.069-1.568,0.208c-0.464,0.139-0.87,0.292-1.218,0.458c-0.35,0.167-0.641,0.32-0.874,0.458
		c-0.234,0.139-0.408,0.208-0.523,0.208c-0.076,0-0.143-0.019-0.2-0.057s-0.107-0.095-0.15-0.172
		c-0.043-0.076-0.074-0.174-0.094-0.294c-0.019-0.119-0.028-0.25-0.028-0.394c0-0.239,0.017-0.428,0.05-0.566
		c0.034-0.139,0.115-0.27,0.244-0.394s0.351-0.27,0.666-0.437s0.678-0.32,1.089-0.458c0.41-0.138,0.859-0.253,1.347-0.344
		s0.979-0.136,1.476-0.136c0.926,0,1.714,0.105,2.363,0.315s1.175,0.518,1.576,0.924c0.401,0.406,0.692,0.91,0.874,1.511
		c0.182,0.602,0.272,1.304,0.272,2.106V111.637z M298.474,105.749h-2.021c-0.649,0-1.213,0.055-1.69,0.165
		c-0.478,0.11-0.874,0.272-1.188,0.487c-0.315,0.215-0.547,0.473-0.695,0.773c-0.147,0.301-0.222,0.647-0.222,1.039
		c0,0.668,0.212,1.201,0.638,1.597c0.425,0.396,1.02,0.595,1.783,0.595c0.621,0,1.196-0.158,1.727-0.473
		c0.53-0.315,1.086-0.797,1.669-1.447V105.749z M297.056,92.425c0.057-0.105,0.124-0.191,0.2-0.258s0.169-0.12,0.279-0.158
		c0.109-0.038,0.246-0.067,0.408-0.086s0.358-0.029,0.588-0.029c0.267,0,0.484,0.017,0.651,0.05
		c0.167,0.034,0.284,0.081,0.351,0.143c0.067,0.063,0.096,0.134,0.087,0.215c-0.01,0.082-0.053,0.165-0.13,0.251l-2.593,3.338
		c-0.076,0.096-0.146,0.172-0.208,0.229c-0.062,0.057-0.134,0.103-0.215,0.136c-0.081,0.034-0.186,0.058-0.314,0.072
		s-0.289,0.021-0.48,0.021c-0.21,0-0.377-0.014-0.501-0.043s-0.213-0.067-0.266-0.115c-0.052-0.047-0.071-0.109-0.057-0.186
		c0.014-0.076,0.055-0.167,0.121-0.272L297.056,92.425z"/>
	<path fill="#FFFFFF" d="M315.56,105.003c0,1.118-0.121,2.123-0.365,3.016c-0.243,0.894-0.602,1.655-1.074,2.285
		s-1.053,1.113-1.74,1.447c-0.688,0.335-1.476,0.502-2.364,0.502c-0.411,0-0.79-0.041-1.139-0.122s-0.69-0.212-1.024-0.394
		c-0.335-0.182-0.669-0.411-1.003-0.688c-0.335-0.277-0.688-0.611-1.061-1.003v1.576c0,0.076-0.019,0.144-0.057,0.201
		c-0.039,0.057-0.101,0.103-0.187,0.136s-0.193,0.06-0.322,0.079c-0.129,0.019-0.294,0.028-0.494,0.028
		c-0.191,0-0.354-0.01-0.487-0.028c-0.134-0.02-0.243-0.046-0.329-0.079s-0.144-0.079-0.172-0.136
		c-0.029-0.058-0.043-0.125-0.043-0.201v-19.14c0-0.076,0.016-0.143,0.05-0.201c0.033-0.057,0.096-0.105,0.187-0.143
		c0.09-0.038,0.212-0.067,0.365-0.086c0.152-0.019,0.344-0.029,0.572-0.029c0.239,0,0.435,0.01,0.588,0.029
		c0.152,0.019,0.272,0.048,0.358,0.086s0.147,0.086,0.186,0.143c0.038,0.058,0.058,0.125,0.058,0.201v7.722
		c0.382-0.391,0.752-0.721,1.11-0.988c0.358-0.267,0.709-0.484,1.053-0.652c0.344-0.167,0.688-0.289,1.031-0.365
		c0.345-0.076,0.707-0.115,1.089-0.115c0.937,0,1.736,0.187,2.4,0.559c0.663,0.373,1.203,0.872,1.618,1.497
		c0.416,0.626,0.719,1.359,0.91,2.199C315.464,103.18,315.56,104.068,315.56,105.003z M313.111,105.276
		c0-0.659-0.051-1.299-0.151-1.92c-0.102-0.621-0.276-1.17-0.526-1.647s-0.581-0.862-0.995-1.153
		c-0.413-0.291-0.927-0.437-1.542-0.437c-0.308,0-0.61,0.043-0.908,0.129c-0.298,0.086-0.601,0.229-0.908,0.43
		c-0.307,0.2-0.627,0.458-0.958,0.773c-0.332,0.315-0.685,0.711-1.06,1.189v5.143c0.653,0.793,1.278,1.397,1.874,1.813
		s1.216,0.623,1.859,0.623c0.596,0,1.104-0.143,1.527-0.43s0.767-0.666,1.031-1.139c0.264-0.473,0.456-1.002,0.576-1.59
		S313.111,105.877,313.111,105.276z"/>
	<path fill="#FFFFFF" d="M325.181,99.574c0,0.21-0.005,0.387-0.015,0.53c-0.01,0.144-0.028,0.256-0.057,0.337
		c-0.029,0.081-0.064,0.143-0.107,0.186s-0.104,0.064-0.18,0.064s-0.17-0.021-0.279-0.064s-0.234-0.086-0.372-0.129
		c-0.139-0.043-0.294-0.083-0.466-0.122s-0.358-0.058-0.559-0.058c-0.239,0-0.473,0.048-0.702,0.144
		c-0.229,0.095-0.471,0.253-0.724,0.473s-0.519,0.511-0.795,0.874c-0.277,0.363-0.583,0.807-0.917,1.332v8.481
		c0,0.076-0.02,0.141-0.058,0.193s-0.1,0.098-0.186,0.137c-0.086,0.038-0.206,0.066-0.358,0.086
		c-0.153,0.019-0.349,0.028-0.588,0.028c-0.229,0-0.42-0.01-0.572-0.028c-0.153-0.02-0.275-0.048-0.365-0.086
		c-0.091-0.039-0.153-0.084-0.187-0.137c-0.034-0.053-0.05-0.117-0.05-0.193V98.729c0-0.076,0.014-0.141,0.043-0.193
		c0.028-0.052,0.086-0.1,0.172-0.143s0.195-0.072,0.329-0.086s0.311-0.021,0.53-0.021c0.21,0,0.384,0.007,0.522,0.021
		s0.246,0.043,0.322,0.086s0.132,0.091,0.165,0.143c0.033,0.053,0.05,0.117,0.05,0.193v1.877c0.354-0.516,0.686-0.936,0.996-1.261
		s0.604-0.58,0.881-0.767c0.277-0.186,0.552-0.315,0.824-0.387c0.271-0.071,0.546-0.107,0.823-0.107
		c0.124,0,0.266,0.007,0.423,0.021c0.157,0.015,0.322,0.041,0.494,0.079s0.327,0.081,0.466,0.129
		c0.138,0.048,0.236,0.095,0.294,0.143c0.057,0.048,0.095,0.093,0.114,0.136c0.019,0.043,0.036,0.098,0.05,0.165
		c0.015,0.067,0.024,0.165,0.029,0.294C325.178,99.18,325.181,99.354,325.181,99.574z"/>
	<path fill="#FFFFFF" d="M329.043,94.374c0,0.554-0.105,0.931-0.315,1.132s-0.597,0.301-1.16,0.301
		c-0.555,0-0.934-0.098-1.139-0.293c-0.206-0.196-0.309-0.566-0.309-1.11c0-0.554,0.105-0.931,0.315-1.132s0.597-0.301,1.16-0.301
		c0.554,0,0.934,0.098,1.139,0.293C328.941,93.459,329.043,93.829,329.043,94.374z M328.771,111.622c0,0.076-0.02,0.141-0.058,0.193
		s-0.1,0.098-0.186,0.137c-0.086,0.038-0.206,0.066-0.358,0.086c-0.153,0.019-0.349,0.028-0.588,0.028
		c-0.229,0-0.42-0.01-0.572-0.028c-0.153-0.02-0.275-0.048-0.365-0.086c-0.091-0.039-0.153-0.084-0.187-0.137
		c-0.034-0.053-0.05-0.117-0.05-0.193V98.729c0-0.066,0.016-0.129,0.05-0.186c0.033-0.057,0.096-0.105,0.187-0.143
		c0.09-0.038,0.212-0.067,0.365-0.086c0.152-0.019,0.344-0.029,0.572-0.029c0.239,0,0.435,0.01,0.588,0.029
		c0.152,0.019,0.272,0.048,0.358,0.086s0.147,0.086,0.186,0.143s0.058,0.12,0.058,0.186V111.622z"/>
	<path fill="#FFFFFF" d="M340.943,109.66c0,0.163-0.005,0.303-0.015,0.422c-0.01,0.12-0.026,0.22-0.05,0.301
		c-0.024,0.081-0.053,0.153-0.086,0.215s-0.11,0.153-0.229,0.272c-0.119,0.12-0.322,0.268-0.608,0.444
		c-0.287,0.177-0.609,0.335-0.967,0.473c-0.358,0.139-0.748,0.251-1.168,0.337c-0.421,0.086-0.854,0.129-1.304,0.129
		c-0.927,0-1.748-0.153-2.464-0.459c-0.717-0.305-1.316-0.752-1.798-1.339c-0.482-0.587-0.851-1.308-1.104-2.163
		c-0.253-0.854-0.38-1.841-0.38-2.958c0-1.27,0.155-2.361,0.466-3.273s0.735-1.659,1.275-2.242c0.539-0.583,1.175-1.015,1.905-1.296
		s1.521-0.422,2.371-0.422c0.41,0,0.81,0.038,1.196,0.114c0.387,0.077,0.742,0.177,1.067,0.301c0.324,0.125,0.613,0.268,0.866,0.43
		c0.253,0.162,0.438,0.301,0.552,0.415c0.114,0.115,0.193,0.206,0.236,0.272s0.079,0.146,0.107,0.236s0.048,0.193,0.058,0.308
		c0.009,0.115,0.014,0.258,0.014,0.43c0,0.373-0.043,0.633-0.129,0.781c-0.086,0.148-0.19,0.222-0.314,0.222
		c-0.144,0-0.309-0.079-0.495-0.236c-0.186-0.158-0.422-0.332-0.709-0.523c-0.286-0.191-0.633-0.365-1.038-0.523
		c-0.406-0.158-0.887-0.236-1.44-0.236c-1.137,0-2.008,0.437-2.614,1.311c-0.606,0.874-0.909,2.142-0.909,3.804
		c0,0.831,0.078,1.56,0.236,2.185c0.157,0.625,0.389,1.148,0.694,1.568c0.306,0.42,0.681,0.733,1.125,0.938
		c0.443,0.206,0.952,0.308,1.525,0.308c0.545,0,1.021-0.086,1.433-0.258c0.41-0.172,0.767-0.36,1.067-0.566s0.554-0.392,0.759-0.559
		c0.206-0.167,0.366-0.251,0.48-0.251c0.066,0,0.124,0.019,0.172,0.057c0.048,0.039,0.088,0.103,0.122,0.194
		c0.033,0.091,0.057,0.205,0.071,0.344C340.936,109.304,340.943,109.469,340.943,109.66z"/>
	<path fill="#FFFFFF" d="M352.083,111.637c0,0.114-0.038,0.2-0.115,0.258c-0.076,0.058-0.181,0.101-0.314,0.129
		s-0.33,0.043-0.588,0.043c-0.248,0-0.446-0.015-0.595-0.043c-0.147-0.028-0.255-0.071-0.322-0.129
		c-0.066-0.058-0.1-0.144-0.1-0.258v-1.29c-0.564,0.602-1.191,1.07-1.884,1.404c-0.693,0.335-1.426,0.502-2.199,0.502
		c-0.679,0-1.292-0.089-1.841-0.266c-0.55-0.176-1.018-0.432-1.404-0.766c-0.387-0.334-0.688-0.745-0.902-1.232
		c-0.215-0.487-0.322-1.041-0.322-1.662c0-0.726,0.147-1.356,0.443-1.891c0.296-0.535,0.722-0.979,1.275-1.332
		s1.232-0.618,2.034-0.795c0.803-0.176,1.705-0.265,2.708-0.265h1.776v-1.003c0-0.497-0.053-0.936-0.157-1.318
		c-0.105-0.382-0.275-0.7-0.509-0.953c-0.234-0.253-0.537-0.444-0.91-0.573c-0.372-0.129-0.831-0.193-1.375-0.193
		c-0.583,0-1.105,0.069-1.568,0.208c-0.464,0.139-0.87,0.292-1.218,0.458c-0.35,0.167-0.641,0.32-0.874,0.458
		c-0.234,0.139-0.408,0.208-0.523,0.208c-0.076,0-0.143-0.019-0.2-0.057s-0.107-0.095-0.15-0.172
		c-0.043-0.076-0.074-0.174-0.094-0.294c-0.019-0.119-0.028-0.25-0.028-0.394c0-0.239,0.017-0.428,0.05-0.566
		c0.034-0.139,0.115-0.27,0.244-0.394s0.351-0.27,0.666-0.437s0.678-0.32,1.089-0.458c0.41-0.138,0.859-0.253,1.347-0.344
		s0.979-0.136,1.476-0.136c0.926,0,1.714,0.105,2.363,0.315s1.175,0.518,1.576,0.924c0.401,0.406,0.692,0.91,0.874,1.511
		c0.182,0.602,0.272,1.304,0.272,2.106V111.637z M349.734,105.749h-2.021c-0.649,0-1.213,0.055-1.69,0.165
		c-0.478,0.11-0.874,0.272-1.188,0.487c-0.315,0.215-0.547,0.473-0.695,0.773c-0.147,0.301-0.222,0.647-0.222,1.039
		c0,0.668,0.212,1.201,0.638,1.597c0.425,0.396,1.02,0.595,1.783,0.595c0.621,0,1.196-0.158,1.727-0.473
		c0.53-0.315,1.086-0.797,1.669-1.447V105.749z"/>
	<path fill="#FFFFFF" d="M371.168,111.622c0,0.076-0.017,0.144-0.05,0.201c-0.034,0.057-0.091,0.103-0.172,0.136
		s-0.189,0.06-0.322,0.079c-0.134,0.019-0.297,0.028-0.487,0.028c-0.201,0-0.368-0.01-0.502-0.028
		c-0.134-0.02-0.243-0.046-0.329-0.079s-0.148-0.079-0.187-0.136c-0.038-0.058-0.057-0.125-0.057-0.201v-1.705
		c-0.679,0.735-1.383,1.309-2.113,1.719c-0.73,0.41-1.531,0.616-2.399,0.616c-0.946,0-1.753-0.185-2.422-0.552
		c-0.668-0.368-1.21-0.864-1.626-1.49c-0.415-0.625-0.719-1.361-0.909-2.207c-0.191-0.845-0.287-1.736-0.287-2.672
		c0-1.108,0.119-2.108,0.358-3.001c0.238-0.893,0.592-1.654,1.061-2.285c0.468-0.63,1.048-1.115,1.74-1.454s1.492-0.509,2.399-0.509
		c0.755,0,1.444,0.165,2.07,0.494c0.626,0.33,1.244,0.814,1.855,1.454V92.54c0-0.067,0.017-0.131,0.05-0.194
		c0.033-0.062,0.098-0.109,0.193-0.143c0.096-0.033,0.218-0.062,0.365-0.086c0.148-0.024,0.337-0.036,0.566-0.036
		c0.238,0,0.435,0.012,0.587,0.036c0.153,0.024,0.272,0.053,0.358,0.086c0.086,0.034,0.15,0.081,0.193,0.143
		c0.043,0.063,0.064,0.127,0.064,0.194V111.622z M368.791,102.554c-0.64-0.792-1.259-1.396-1.855-1.812s-1.22-0.624-1.869-0.624
		c-0.602,0-1.113,0.144-1.533,0.43c-0.42,0.286-0.762,0.664-1.024,1.132c-0.263,0.468-0.454,0.998-0.573,1.59
		c-0.119,0.592-0.179,1.194-0.179,1.805c0,0.649,0.05,1.285,0.15,1.905c0.101,0.621,0.274,1.173,0.522,1.655
		c0.249,0.482,0.578,0.869,0.989,1.161c0.41,0.292,0.926,0.437,1.547,0.437c0.315,0,0.618-0.043,0.91-0.129
		c0.291-0.086,0.589-0.229,0.895-0.43s0.626-0.46,0.96-0.781c0.335-0.32,0.688-0.714,1.061-1.182V102.554z"/>
	<path fill="#FFFFFF" d="M385.074,104.617c0,0.373-0.094,0.638-0.28,0.795c-0.188,0.157-0.4,0.236-0.641,0.236h-8.491
		c0,0.716,0.071,1.361,0.216,1.934c0.144,0.573,0.384,1.065,0.72,1.476s0.772,0.726,1.31,0.945c0.538,0.22,1.195,0.33,1.973,0.33
		c0.614,0,1.161-0.05,1.641-0.15c0.48-0.101,0.896-0.212,1.246-0.337c0.35-0.124,0.638-0.236,0.863-0.336
		c0.226-0.101,0.396-0.15,0.512-0.15c0.066,0,0.127,0.017,0.18,0.05c0.053,0.034,0.094,0.084,0.122,0.151s0.051,0.16,0.064,0.279
		c0.015,0.119,0.022,0.265,0.022,0.437c0,0.124-0.005,0.231-0.015,0.322s-0.021,0.172-0.036,0.243
		c-0.014,0.072-0.038,0.136-0.071,0.194c-0.033,0.057-0.076,0.112-0.129,0.165c-0.053,0.053-0.208,0.139-0.466,0.258
		s-0.592,0.236-1.003,0.351c-0.41,0.114-0.886,0.217-1.425,0.308c-0.54,0.091-1.115,0.137-1.727,0.137
		c-1.061,0-1.989-0.148-2.786-0.444c-0.798-0.296-1.469-0.735-2.014-1.318c-0.544-0.583-0.955-1.313-1.231-2.192
		c-0.277-0.879-0.416-1.901-0.416-3.066c0-1.108,0.144-2.104,0.43-2.987c0.287-0.883,0.7-1.633,1.239-2.249
		c0.54-0.616,1.191-1.089,1.956-1.418c0.764-0.329,1.619-0.494,2.564-0.494c1.012,0,1.874,0.163,2.586,0.487
		c0.711,0.325,1.296,0.762,1.755,1.311c0.458,0.549,0.795,1.194,1.01,1.934c0.215,0.74,0.322,1.531,0.322,2.371V104.617z
		 M382.696,103.915c0.028-1.242-0.248-2.216-0.829-2.923c-0.581-0.707-1.443-1.06-2.587-1.06c-0.587,0-1.101,0.11-1.543,0.33
		c-0.441,0.22-0.812,0.511-1.109,0.874c-0.298,0.363-0.528,0.786-0.692,1.268c-0.163,0.482-0.254,0.986-0.273,1.512H382.696z"/>
	<path fill="#FFFFFF" d="M404.23,104.975c0,1.127-0.121,2.139-0.365,3.037c-0.243,0.898-0.602,1.66-1.074,2.285
		s-1.058,1.108-1.755,1.447s-1.495,0.509-2.393,0.509c-0.382,0-0.735-0.038-1.061-0.115c-0.324-0.076-0.642-0.195-0.952-0.357
		s-0.618-0.368-0.924-0.616c-0.306-0.249-0.631-0.54-0.975-0.874v6.446c0,0.077-0.02,0.144-0.058,0.201s-0.1,0.104-0.186,0.144
		c-0.086,0.037-0.206,0.066-0.358,0.086c-0.153,0.019-0.349,0.028-0.588,0.028c-0.229,0-0.42-0.01-0.572-0.028
		c-0.153-0.02-0.275-0.049-0.365-0.086c-0.091-0.039-0.153-0.086-0.187-0.144c-0.034-0.058-0.05-0.124-0.05-0.201V98.729
		c0-0.086,0.014-0.155,0.043-0.208c0.028-0.052,0.086-0.098,0.172-0.136c0.086-0.038,0.195-0.064,0.329-0.079
		s0.296-0.021,0.487-0.021c0.2,0,0.365,0.007,0.494,0.021s0.236,0.041,0.322,0.079c0.086,0.039,0.146,0.084,0.179,0.136
		c0.033,0.053,0.051,0.122,0.051,0.208v1.734c0.392-0.401,0.769-0.75,1.132-1.046c0.362-0.296,0.728-0.542,1.096-0.738
		c0.367-0.196,0.745-0.344,1.132-0.444c0.387-0.1,0.795-0.15,1.225-0.15c0.936,0,1.733,0.182,2.393,0.544
		c0.659,0.363,1.196,0.859,1.611,1.49c0.416,0.63,0.719,1.364,0.91,2.199C404.134,103.153,404.23,104.039,404.23,104.975z
		 M401.781,105.247c0-0.659-0.051-1.296-0.151-1.913c-0.102-0.616-0.274-1.163-0.52-1.64s-0.574-0.86-0.987-1.146
		c-0.413-0.287-0.927-0.43-1.542-0.43c-0.308,0-0.61,0.046-0.908,0.136c-0.298,0.091-0.601,0.234-0.908,0.43
		c-0.308,0.196-0.629,0.454-0.966,0.774c-0.336,0.32-0.691,0.714-1.066,1.182v5.129c0.653,0.793,1.273,1.399,1.859,1.819
		c0.586,0.42,1.201,0.63,1.845,0.63c0.596,0,1.107-0.143,1.535-0.43s0.773-0.668,1.038-1.146s0.459-1.012,0.584-1.604
		S401.781,105.849,401.781,105.247z"/>
	<path fill="#FFFFFF" d="M416.03,111.637c0,0.114-0.038,0.2-0.115,0.258c-0.076,0.058-0.181,0.101-0.314,0.129
		s-0.33,0.043-0.588,0.043c-0.248,0-0.446-0.015-0.595-0.043c-0.147-0.028-0.255-0.071-0.322-0.129
		c-0.066-0.058-0.1-0.144-0.1-0.258v-1.29c-0.564,0.602-1.191,1.07-1.884,1.404c-0.693,0.335-1.426,0.502-2.199,0.502
		c-0.679,0-1.292-0.089-1.841-0.266c-0.55-0.176-1.018-0.432-1.404-0.766c-0.387-0.334-0.688-0.745-0.902-1.232
		c-0.215-0.487-0.322-1.041-0.322-1.662c0-0.726,0.147-1.356,0.443-1.891c0.296-0.535,0.722-0.979,1.275-1.332
		s1.232-0.618,2.034-0.795c0.803-0.176,1.705-0.265,2.708-0.265h1.776v-1.003c0-0.497-0.053-0.936-0.157-1.318
		c-0.105-0.382-0.275-0.7-0.509-0.953c-0.234-0.253-0.537-0.444-0.91-0.573c-0.372-0.129-0.831-0.193-1.375-0.193
		c-0.583,0-1.105,0.069-1.568,0.208c-0.464,0.139-0.87,0.292-1.218,0.458c-0.35,0.167-0.641,0.32-0.874,0.458
		c-0.234,0.139-0.408,0.208-0.523,0.208c-0.076,0-0.143-0.019-0.2-0.057s-0.107-0.095-0.15-0.172
		c-0.043-0.076-0.074-0.174-0.094-0.294c-0.019-0.119-0.028-0.25-0.028-0.394c0-0.239,0.017-0.428,0.05-0.566
		c0.034-0.139,0.115-0.27,0.244-0.394s0.351-0.27,0.666-0.437s0.678-0.32,1.089-0.458c0.41-0.138,0.859-0.253,1.347-0.344
		s0.979-0.136,1.476-0.136c0.926,0,1.714,0.105,2.363,0.315s1.175,0.518,1.576,0.924c0.401,0.406,0.692,0.91,0.874,1.511
		c0.182,0.602,0.272,1.304,0.272,2.106V111.637z M413.68,105.749h-2.021c-0.649,0-1.213,0.055-1.69,0.165
		c-0.478,0.11-0.874,0.272-1.188,0.487c-0.315,0.215-0.547,0.473-0.695,0.773c-0.147,0.301-0.222,0.647-0.222,1.039
		c0,0.668,0.212,1.201,0.638,1.597c0.425,0.396,1.02,0.595,1.783,0.595c0.621,0,1.196-0.158,1.727-0.473
		c0.53-0.315,1.086-0.797,1.669-1.447V105.749z"/>
	<path fill="#FFFFFF" d="M426.998,108.112c0,0.659-0.122,1.247-0.365,1.762s-0.59,0.951-1.039,1.304
		c-0.448,0.354-0.983,0.622-1.604,0.802c-0.62,0.182-1.304,0.272-2.048,0.272c-0.459,0-0.896-0.036-1.312-0.107
		c-0.415-0.072-0.788-0.163-1.117-0.272c-0.329-0.11-0.608-0.224-0.838-0.344s-0.396-0.228-0.502-0.322
		c-0.104-0.096-0.182-0.229-0.229-0.401c-0.048-0.172-0.072-0.406-0.072-0.702c0-0.181,0.01-0.334,0.029-0.458
		c0.019-0.124,0.043-0.225,0.071-0.301c0.028-0.076,0.069-0.131,0.122-0.165c0.052-0.033,0.111-0.05,0.179-0.05
		c0.105,0,0.26,0.064,0.466,0.193c0.205,0.129,0.458,0.27,0.759,0.423s0.657,0.293,1.067,0.422c0.411,0.129,0.884,0.194,1.419,0.194
		c0.4,0,0.764-0.043,1.088-0.129c0.325-0.086,0.606-0.213,0.846-0.38c0.238-0.167,0.423-0.38,0.552-0.638s0.193-0.563,0.193-0.917
		c0-0.363-0.093-0.668-0.279-0.917s-0.433-0.468-0.738-0.659c-0.306-0.191-0.649-0.36-1.031-0.508s-0.776-0.303-1.182-0.466
		c-0.406-0.162-0.803-0.346-1.189-0.552c-0.387-0.205-0.733-0.456-1.038-0.752c-0.307-0.296-0.552-0.649-0.738-1.06
		s-0.279-0.902-0.279-1.476c0-0.506,0.098-0.991,0.294-1.454c0.195-0.463,0.489-0.869,0.881-1.218s0.881-0.628,1.469-0.838
		c0.587-0.21,1.272-0.315,2.056-0.315c0.344,0,0.688,0.029,1.031,0.086c0.344,0.058,0.654,0.129,0.932,0.215
		c0.276,0.086,0.513,0.179,0.709,0.279c0.195,0.101,0.344,0.189,0.444,0.265c0.1,0.077,0.167,0.144,0.2,0.201
		s0.058,0.122,0.071,0.193c0.015,0.072,0.029,0.16,0.043,0.265c0.015,0.105,0.021,0.234,0.021,0.387
		c0,0.163-0.007,0.303-0.021,0.423c-0.014,0.119-0.038,0.217-0.071,0.293c-0.033,0.077-0.074,0.131-0.122,0.165
		c-0.048,0.034-0.1,0.05-0.157,0.05c-0.086,0-0.21-0.052-0.373-0.158c-0.162-0.105-0.372-0.217-0.63-0.336
		c-0.258-0.119-0.562-0.231-0.91-0.337c-0.349-0.105-0.747-0.157-1.196-0.157c-0.4,0-0.754,0.045-1.06,0.136
		c-0.306,0.091-0.557,0.22-0.752,0.387c-0.196,0.167-0.344,0.365-0.444,0.594c-0.101,0.229-0.15,0.478-0.15,0.745
		c0,0.373,0.096,0.686,0.286,0.938c0.191,0.253,0.439,0.475,0.745,0.666s0.654,0.363,1.046,0.516
		c0.392,0.153,0.79,0.311,1.196,0.473c0.406,0.163,0.807,0.344,1.203,0.544c0.396,0.201,0.747,0.444,1.054,0.731
		c0.305,0.287,0.551,0.63,0.737,1.031C426.905,107.081,426.998,107.559,426.998,108.112z"/>
	<path fill="#FFFFFF" d="M435.287,110.677c0,0.277-0.02,0.497-0.058,0.659c-0.038,0.163-0.095,0.282-0.172,0.358
		c-0.076,0.076-0.19,0.148-0.344,0.215c-0.152,0.066-0.327,0.121-0.522,0.164c-0.196,0.043-0.403,0.079-0.623,0.107
		c-0.22,0.029-0.439,0.043-0.659,0.043c-0.669,0-1.242-0.088-1.72-0.265s-0.869-0.444-1.174-0.802
		c-0.307-0.358-0.528-0.812-0.667-1.361s-0.207-1.196-0.207-1.941v-7.536h-1.806c-0.143,0-0.258-0.076-0.344-0.229
		s-0.129-0.401-0.129-0.745c0-0.181,0.012-0.334,0.036-0.458c0.023-0.124,0.055-0.227,0.093-0.308
		c0.038-0.081,0.088-0.138,0.15-0.172c0.063-0.033,0.131-0.05,0.208-0.05h1.791v-3.066c0-0.067,0.017-0.129,0.05-0.187
		c0.033-0.057,0.096-0.107,0.187-0.15s0.212-0.074,0.365-0.093c0.152-0.019,0.344-0.029,0.573-0.029c0.238,0,0.434,0.01,0.587,0.029
		c0.152,0.019,0.272,0.05,0.358,0.093s0.147,0.093,0.187,0.15c0.037,0.058,0.057,0.12,0.057,0.187v3.066h3.31
		c0.076,0,0.144,0.017,0.2,0.05c0.058,0.034,0.107,0.091,0.15,0.172c0.043,0.082,0.074,0.184,0.094,0.308
		c0.019,0.125,0.028,0.277,0.028,0.458c0,0.344-0.043,0.592-0.129,0.745s-0.2,0.229-0.344,0.229h-3.31v7.192
		c0,0.888,0.132,1.559,0.395,2.013c0.262,0.454,0.732,0.681,1.411,0.681c0.219,0,0.415-0.021,0.587-0.064s0.324-0.088,0.459-0.136
		c0.133-0.048,0.248-0.093,0.344-0.136c0.095-0.043,0.181-0.064,0.258-0.064c0.047,0,0.093,0.012,0.136,0.036
		s0.076,0.069,0.101,0.136c0.023,0.067,0.045,0.158,0.064,0.272C435.277,110.362,435.287,110.505,435.287,110.677z"/>
	<path fill="#FFFFFF" d="M446.298,111.637c0,0.114-0.038,0.2-0.115,0.258c-0.076,0.058-0.181,0.101-0.314,0.129
		s-0.33,0.043-0.588,0.043c-0.248,0-0.446-0.015-0.595-0.043c-0.147-0.028-0.255-0.071-0.322-0.129
		c-0.066-0.058-0.1-0.144-0.1-0.258v-1.29c-0.564,0.602-1.191,1.07-1.884,1.404c-0.693,0.335-1.426,0.502-2.199,0.502
		c-0.679,0-1.292-0.089-1.841-0.266c-0.55-0.176-1.018-0.432-1.404-0.766c-0.387-0.334-0.688-0.745-0.902-1.232
		c-0.215-0.487-0.322-1.041-0.322-1.662c0-0.726,0.147-1.356,0.443-1.891c0.296-0.535,0.722-0.979,1.275-1.332
		s1.232-0.618,2.034-0.795c0.803-0.176,1.705-0.265,2.708-0.265h1.776v-1.003c0-0.497-0.053-0.936-0.157-1.318
		c-0.105-0.382-0.275-0.7-0.509-0.953c-0.234-0.253-0.537-0.444-0.91-0.573c-0.372-0.129-0.831-0.193-1.375-0.193
		c-0.583,0-1.105,0.069-1.568,0.208c-0.464,0.139-0.87,0.292-1.218,0.458c-0.35,0.167-0.641,0.32-0.874,0.458
		c-0.234,0.139-0.408,0.208-0.523,0.208c-0.076,0-0.143-0.019-0.2-0.057s-0.107-0.095-0.15-0.172
		c-0.043-0.076-0.074-0.174-0.094-0.294c-0.019-0.119-0.028-0.25-0.028-0.394c0-0.239,0.017-0.428,0.05-0.566
		c0.034-0.139,0.115-0.27,0.244-0.394s0.351-0.27,0.666-0.437s0.678-0.32,1.089-0.458c0.41-0.138,0.859-0.253,1.347-0.344
		s0.979-0.136,1.476-0.136c0.926,0,1.714,0.105,2.363,0.315s1.175,0.518,1.576,0.924c0.401,0.406,0.692,0.91,0.874,1.511
		c0.182,0.602,0.272,1.304,0.272,2.106V111.637z M443.949,105.749h-2.021c-0.649,0-1.213,0.055-1.69,0.165
		c-0.478,0.11-0.874,0.272-1.188,0.487c-0.315,0.215-0.547,0.473-0.695,0.773c-0.147,0.301-0.222,0.647-0.222,1.039
		c0,0.668,0.212,1.201,0.638,1.597c0.425,0.396,1.02,0.595,1.783,0.595c0.621,0,1.196-0.158,1.727-0.473
		c0.53-0.315,1.086-0.797,1.669-1.447V105.749z"/>
	<path fill="#FFFFFF" d="M457.266,108.112c0,0.659-0.122,1.247-0.365,1.762s-0.59,0.951-1.039,1.304
		c-0.448,0.354-0.983,0.622-1.604,0.802c-0.62,0.182-1.304,0.272-2.048,0.272c-0.459,0-0.896-0.036-1.312-0.107
		c-0.415-0.072-0.788-0.163-1.117-0.272c-0.329-0.11-0.608-0.224-0.838-0.344s-0.396-0.228-0.502-0.322
		c-0.104-0.096-0.182-0.229-0.229-0.401c-0.048-0.172-0.072-0.406-0.072-0.702c0-0.181,0.01-0.334,0.029-0.458
		c0.019-0.124,0.043-0.225,0.071-0.301c0.028-0.076,0.069-0.131,0.122-0.165c0.052-0.033,0.111-0.05,0.179-0.05
		c0.105,0,0.26,0.064,0.466,0.193c0.205,0.129,0.458,0.27,0.759,0.423s0.657,0.293,1.067,0.422c0.411,0.129,0.884,0.194,1.419,0.194
		c0.4,0,0.764-0.043,1.088-0.129c0.325-0.086,0.606-0.213,0.846-0.38c0.238-0.167,0.423-0.38,0.552-0.638s0.193-0.563,0.193-0.917
		c0-0.363-0.093-0.668-0.279-0.917s-0.433-0.468-0.738-0.659c-0.306-0.191-0.649-0.36-1.031-0.508s-0.776-0.303-1.182-0.466
		c-0.406-0.162-0.803-0.346-1.189-0.552c-0.387-0.205-0.733-0.456-1.038-0.752c-0.307-0.296-0.552-0.649-0.738-1.06
		s-0.279-0.902-0.279-1.476c0-0.506,0.098-0.991,0.294-1.454c0.195-0.463,0.489-0.869,0.881-1.218s0.881-0.628,1.469-0.838
		c0.587-0.21,1.272-0.315,2.056-0.315c0.344,0,0.688,0.029,1.031,0.086c0.344,0.058,0.654,0.129,0.932,0.215
		c0.276,0.086,0.513,0.179,0.709,0.279c0.195,0.101,0.344,0.189,0.444,0.265c0.1,0.077,0.167,0.144,0.2,0.201
		s0.058,0.122,0.071,0.193c0.015,0.072,0.029,0.16,0.043,0.265c0.015,0.105,0.021,0.234,0.021,0.387
		c0,0.163-0.007,0.303-0.021,0.423c-0.014,0.119-0.038,0.217-0.071,0.293c-0.033,0.077-0.074,0.131-0.122,0.165
		c-0.048,0.034-0.1,0.05-0.157,0.05c-0.086,0-0.21-0.052-0.373-0.158c-0.162-0.105-0.372-0.217-0.63-0.336
		c-0.258-0.119-0.562-0.231-0.91-0.337c-0.349-0.105-0.747-0.157-1.196-0.157c-0.4,0-0.754,0.045-1.06,0.136
		c-0.306,0.091-0.557,0.22-0.752,0.387c-0.196,0.167-0.344,0.365-0.444,0.594c-0.101,0.229-0.15,0.478-0.15,0.745
		c0,0.373,0.096,0.686,0.286,0.938c0.191,0.253,0.439,0.475,0.745,0.666s0.654,0.363,1.046,0.516
		c0.392,0.153,0.79,0.311,1.196,0.473c0.406,0.163,0.807,0.344,1.203,0.544c0.396,0.201,0.747,0.444,1.054,0.731
		c0.305,0.287,0.551,0.63,0.737,1.031C457.173,107.081,457.266,107.559,457.266,108.112z"/>
</g>
<g>
	<path fill="#FFFFFF" d="M468.918,83.466l-0.356-3.564c1.059,0.432,1.954,0.732,2.689,0.899c0.733,0.167,1.409,0.251,2.024,0.251
		s1.134-0.073,1.555-0.219c0.422-0.146,0.734-0.362,0.939-0.648s0.309-0.586,0.309-0.899c0-0.14-0.014-0.27-0.041-0.389
		c-0.027-0.119-0.075-0.243-0.146-0.373c-0.07-0.129-0.151-0.251-0.243-0.364s-0.219-0.243-0.381-0.389
		c-0.162-0.146-0.395-0.333-0.696-0.559l-0.875-0.697c-0.842-0.658-1.484-1.177-1.928-1.555c-0.442-0.378-0.815-0.764-1.117-1.158
		c-0.303-0.395-0.532-0.81-0.688-1.248c-0.157-0.438-0.235-0.883-0.235-1.336c0-0.788,0.24-1.539,0.721-2.251
		c0.48-0.713,1.18-1.234,2.099-1.563c0.917-0.329,1.997-0.494,3.239-0.494c1.415,0,3.046,0.168,4.893,0.502l0.21,3.386
		c-1.253-0.508-2.457-0.762-3.612-0.762c-0.626,0-1.174,0.063-1.645,0.187c-0.47,0.124-0.807,0.313-1.012,0.567
		c-0.205,0.254-0.308,0.537-0.308,0.851c0,0.184,0.032,0.364,0.097,0.542s0.179,0.364,0.34,0.559
		c0.162,0.194,0.349,0.378,0.56,0.551c0.21,0.173,0.65,0.513,1.32,1.021c0.669,0.507,1.255,0.966,1.757,1.377
		c0.503,0.41,0.916,0.823,1.239,1.239c0.324,0.416,0.572,0.861,0.745,1.336c0.173,0.476,0.26,0.956,0.26,1.442
		c0,0.81-0.249,1.561-0.745,2.251c-0.497,0.691-1.247,1.231-2.252,1.62c-1.004,0.389-2.128,0.583-3.369,0.583
		c-0.648,0-1.437-0.051-2.365-0.154S469.977,83.725,468.918,83.466z"/>
	<path fill="#FFFFFF" d="M483.886,83.774l0.469-7.694l0.13-4.471c0.021-0.917,0.032-1.841,0.032-2.77
		c0-0.162-0.011-0.675-0.032-1.539c1.004,0.021,1.744,0.032,2.22,0.032c0.551,0,1.28-0.011,2.188-0.032l-0.081,2.284
		c0.41-0.583,0.761-1.018,1.053-1.304s0.618-0.532,0.98-0.737c0.361-0.205,0.764-0.361,1.206-0.47
		c0.443-0.108,0.896-0.162,1.361-0.162c0.432,0,0.874,0.054,1.328,0.162c0,1.004,0.049,2.279,0.146,3.823
		c-0.637-0.173-1.215-0.259-1.733-0.259c-0.626,0-1.18,0.095-1.66,0.283c-0.481,0.189-0.913,0.476-1.297,0.859
		c-0.383,0.383-0.699,0.856-0.947,1.417c-0.205,0.453-0.356,1.042-0.454,1.766c-0.084,0.562-0.154,1.522-0.213,2.883
		c-0.058,1.361-0.087,2.7-0.087,4.017c0,0.508,0.017,1.145,0.049,1.912c-0.822-0.021-1.573-0.032-2.255-0.032
		C485.617,83.742,484.816,83.752,483.886,83.774z"/>
	<path fill="#FFFFFF" d="M496.796,83.774c0.161-1.825,0.357-5.105,0.589-9.841c0.231-4.735,0.374-8.826,0.427-12.271
		c1.125,0.021,1.925,0.032,2.4,0.032c0.638,0,1.416-0.011,2.335-0.032l-0.387,5.913l-0.564,13.186l-0.064,3.013
		c-0.887-0.021-1.638-0.032-2.254-0.032C499.072,83.742,498.246,83.752,496.796,83.774z"/>
</g>
<line fill="none" stroke="#FFFFFF" stroke-width="2.1996" stroke-linecap="round" stroke-miterlimit="10" x1="4.399" y1="104.155" x2="271.756" y2="104.155"/>
</svg>
