<?xml version="1.0" encoding="utf-8"?>
<!-- Generator: Adobe Illustrator 16.0.0, SVG Export Plug-In . SVG Version: 6.00 Build 0)  -->
<!DOCTYPE svg PUBLIC "-//W3C//DTD SVG 1.1//EN" "http://www.w3.org/Graphics/SVG/1.1/DTD/svg11.dtd">
<svg version="1.1" id="Capa_1" xmlns="http://www.w3.org/2000/svg" xmlns:xlink="http://www.w3.org/1999/xlink" x="0px" y="0px"
	 width="94px" height="94px" viewBox="0 0 94 94" enable-background="new 0 0 94 94" xml:space="preserve">
<g>
	<circle fill-rule="evenodd" clip-rule="evenodd" fill="#00B7A5" cx="47" cy="46.999" r="46"/>
	<g>
		<defs>
			<circle id="SVGID_19_" cx="47" cy="46.999" r="46"/>
		</defs>
		<clipPath id="SVGID_2_">
			<use xlink:href="#SVGID_19_"  overflow="visible"/>
		</clipPath>
		<g clip-path="url(#SVGID_2_)">
			<defs>
				<circle id="SVGID_21_" cx="50" cy="47.999" r="46"/>
			</defs>
			<clipPath id="SVGID_4_">
				<use xlink:href="#SVGID_21_"  overflow="visible"/>
			</clipPath>
			<polygon opacity="0.14" clip-path="url(#SVGID_4_)" points="28.719,75.78 72.417,97.999 117.083,44.374 65.479,18.095 
				56.729,24.688 56.985,27.424 58.167,30.083 39.125,20.624 43.5,30.249 42.156,35.78 34,28.5 33.5,34.875 30.813,36.749 
				30.313,42.312 38.5,44.875 43.25,49.75 39.125,54.25 39.75,57.375 35.233,68.254 35.432,69.595 			"/>
		</g>
	</g>
</g>
<path fill="#FFFFFF" d="M65.046,68.884c-0.803-2.319-1.308-4.803-1.058-9.099c0.163-2.836,0.78-14.285,0.841-17.207
	c0.104-5.113-0.547-9.923-0.633-12.876c-0.029-0.921-0.007-3.068,0.199-3.991c0.296-1.318,0.592-2.243,1.129-2.974
	c0.353-0.484,0.534-1.067,0.534-1.067c0-0.407-0.453-2.983-0.453-2.983c-0.125-0.271-0.354-0.429-0.354-0.429l-6.301,0.421
	c0,0-3.683-0.297-5.565-0.19c-1.057-0.057-8.501,0.287-8.501,0.287l-5.163-0.045c0,0-4.433-0.299-4.784-0.353
	c-2.233-0.12-6.103-0.001-6.254,0.103c-0.145-0.112-0.435,0.646-0.45,1.012c-0.252,2.408-0.021,1.417-0.154,1.867
	c0,0.001,0,0.003,0,0.003h-0.003c0,0,0,0.003,0,0.006c-0.014,0.06-0.077,0.286-0.135,0.484c0.021,0.066,0.048,0.064,0.081,0.143
	c0,0,1.872,3.464,1.891,4.902c0.015,1.19-1.034,7.704-0.957,15.214c0.062,5.786,1.242,15.212,1.039,19.487
	c-0.044,0.845-0.435,6.629-1.484,8.836c-0.229,0.559-0.454,1.754-0.454,2.127c0,0.904,0.076,1.268,0.229,2.412
	c0.018,0.367,0.029,0.5,0.029,0.667l0.01,0.102c0.968-0.142,4.122-0.142,5.143-0.144c0.276,0.002,5.993-0.11,6.625-0.122
	c0.313-0.04,6.639-0.046,6.639-0.046l3.696,0.003c0,0,8.743-0.002,8.886,0.107c0.517,0.07,5.773,0.151,5.939,0.144
	c0.194-0.19,0.229-0.158,0.354-0.427c0,0,0.3-1.234,0.413-2.367C66.117,71.874,65.427,69.994,65.046,68.884z"/>
</svg>
