<?xml version="1.0" encoding="utf-8"?>
<!-- Generator: Adobe Illustrator 16.0.0, SVG Export Plug-In . SVG Version: 6.00 Build 0)  -->
<!DOCTYPE svg PUBLIC "-//W3C//DTD SVG 1.1//EN" "http://www.w3.org/Graphics/SVG/1.1/DTD/svg11.dtd">
<svg version="1.1" id="Capa_1" xmlns="http://www.w3.org/2000/svg" xmlns:xlink="http://www.w3.org/1999/xlink" x="0px" y="0px"
	 width="94px" height="94px" viewBox="0 0 94 94" enable-background="new 0 0 94 94" xml:space="preserve">
<g>
	<circle fill-rule="evenodd" clip-rule="evenodd" fill="#56D5D9" cx="47" cy="46.999" r="46"/>
	<g>
		<defs>
			<circle id="SVGID_15_" cx="47" cy="46.999" r="46"/>
		</defs>
		<clipPath id="SVGID_2_">
			<use xlink:href="#SVGID_15_"  overflow="visible"/>
		</clipPath>
		<g clip-path="url(#SVGID_2_)">
			<defs>
				<circle id="SVGID_17_" cx="50" cy="47.999" r="46"/>
			</defs>
			<clipPath id="SVGID_4_">
				<use xlink:href="#SVGID_17_"  overflow="visible"/>
			</clipPath>
			<polygon opacity="0.14" clip-path="url(#SVGID_4_)" points="46.25,75.25 80.167,92.999 105.833,47.499 48,18.875 47.25,23.313 
				47.625,25.25 47,31.063 46.875,48 43.625,49.438 23.188,61.875 46.292,73.436 			"/>
		</g>
	</g>
	<path fill="#FFFFFF" d="M70.886,58.782l-6.115-3.534l5.161-3.075c0.829-0.399,1.088-1.514,0.615-2.333
		c-0.48-0.838-1.517-1.015-2.304-0.556l-6.88,4.031L50.425,46.95l10.938-6.297l6.88,4.022c0.214,0.156,0.493,0.249,0.8,0.249
		c0.583,0,1.104-0.274,1.504-0.801c0.461-0.831,0.214-1.932-0.615-2.332l-5.161-3.072l6.115-3.532
		c0.797-0.461,1.069-1.488,0.615-2.333c-0.435-0.813-1.514-1.095-2.336-0.617l-6.144,3.564l-0.093-6.147
		c-0.013-0.951-0.736-1.715-1.689-1.715c-0.95,0-1.696,0.824-1.689,1.715l0.061,8.115l-10.874,6.298V31.286l6.852-3.903
		c0.8-0.455,1.149-1.507,0.675-2.333c-0.48-0.842-1.466-1.088-2.304-0.618l-5.223,2.951v-6.974c0-0.949-0.768-1.719-1.718-1.719
		c-0.954,0-1.69,0.77-1.69,1.719v7.037l-5.408-3.015c-0.842-0.465-1.802-0.201-2.272,0.618c-0.48,0.838-0.183,1.865,0.643,2.333
		l7.038,3.965v12.653l-11.123-6.416l0.063-7.931c0.093-0.891-0.707-1.715-1.661-1.715h-0.06c-0.89,0-1.681,0.764-1.69,1.715
		l-0.061,5.965l-5.991-3.439c-0.835-0.486-1.868-0.199-2.304,0.607c-0.458,0.852-0.221,1.856,0.614,2.34l6.052,3.5l-5.284,3.165
		c-0.828,0.4-1.088,1.514-0.582,2.332c0.323,0.532,0.797,0.801,1.443,0.801c0.336,0,0.618-0.083,0.89-0.249l6.913-4.084
		l11.091,6.358l-11.091,6.423l-6.913-4.089c-0.829-0.484-1.9-0.257-2.333,0.556c-0.458,0.846-0.211,1.862,0.582,2.333l5.284,3.133
		l-6.052,3.534c-0.832,0.486-1.104,1.507-0.614,2.338c0.342,0.576,0.8,0.857,1.444,0.857c0.153,0,0.46-0.088,0.86-0.246l5.991-3.443
		l0.061,5.965c0.01,0.951,0.801,1.684,1.69,1.684h0.06c0.954,0,1.667-0.79,1.661-1.747l-0.063-7.923l11.123-6.359v12.589
		l-7.038,3.965c-0.838,0.474-1.132,1.501-0.643,2.333c0.339,0.585,0.797,0.867,1.443,0.867c0.308,0,0.589-0.053,0.829-0.191
		l5.408-3.065v7.154c0,0.95,0.736,1.693,1.69,1.693c0.95,0,1.718-0.743,1.718-1.693v-7.037l5.223,2.948
		c0.24,0.139,0.521,0.191,0.8,0.191c0.675,0,1.174-0.275,1.504-0.867c0.467-0.825,0.167-1.859-0.675-2.333l-6.852-3.84V49.901
		l10.874,6.298l-0.061,8.048c-0.006,0.957,0.739,1.747,1.689,1.747c0.954,0,1.677-0.732,1.689-1.684l0.093-6.178l6.144,3.595
		c0.237,0.139,0.554,0.187,0.893,0.187c0.643,0,1.117-0.268,1.443-0.8C72.003,60.294,71.683,59.238,70.886,58.782L70.886,58.782z
		 M70.886,58.782"/>
</g>
</svg>
