<?xml version="1.0" encoding="utf-8"?>
<!-- Generator: Adobe Illustrator 16.0.0, SVG Export Plug-In . SVG Version: 6.00 Build 0)  -->
<!DOCTYPE svg PUBLIC "-//W3C//DTD SVG 1.1//EN" "http://www.w3.org/Graphics/SVG/1.1/DTD/svg11.dtd">
<svg version="1.1" id="Capa_1" xmlns="http://www.w3.org/2000/svg" xmlns:xlink="http://www.w3.org/1999/xlink" x="0px" y="0px"
	 width="94px" height="94px" viewBox="0 0 94 94" enable-background="new 0 0 94 94" xml:space="preserve">
<g>
	<circle fill-rule="evenodd" clip-rule="evenodd" fill="#FFD3AB" cx="47" cy="46.999" r="46"/>
</g>
<g>
	<defs>
		<circle id="SVGID_1_" cx="47" cy="46.999" r="45.999"/>
	</defs>
	<clipPath id="SVGID_2_">
		<use xlink:href="#SVGID_1_"  overflow="visible"/>
	</clipPath>
	<polygon opacity="0.15" clip-path="url(#SVGID_2_)" points="39.67,73.934 74.738,91.081 93.024,75.193 94.275,35.402 
		66.968,21.505 56.25,43.875 55.625,51.5 66.713,57.659 61.105,58.756 	"/>
</g>
<g>
	<g>
		<defs>
			<circle id="SVGID_19_" cx="-66" cy="46.999" r="46"/>
		</defs>
		<clipPath id="SVGID_4_">
			<use xlink:href="#SVGID_19_"  overflow="visible"/>
		</clipPath>
		<g clip-path="url(#SVGID_4_)">
			<defs>
				<circle id="SVGID_21_" cx="-63" cy="47.999" r="46"/>
			</defs>
			<clipPath id="SVGID_6_">
				<use xlink:href="#SVGID_21_"  overflow="visible"/>
			</clipPath>
			<polygon opacity="0.14" clip-path="url(#SVGID_6_)" points="-84.281,75.78 -40.583,97.999 4.083,44.374 -47.521,18.095 
				-56.271,24.688 -56.015,27.424 -54.833,30.083 -73.875,20.624 -69.5,30.249 -70.844,35.78 -79,28.5 -79.5,34.875 -82.188,36.749 
				-82.688,42.312 -74.5,44.875 -69.75,49.75 -73.875,54.25 -73.25,57.375 -77.767,68.254 -77.568,69.595 			"/>
		</g>
	</g>
</g>
<g>
	<path fill="#FF7A5A" d="M30.517,51.185l9.124,22.622c0,0,16.034-7.953,30.579-7.277c-0.984-13.081-1.698-19.557-2.039-24.307
		c13.821-9.394-1.501-31.559-14.278-17.46c-11.679-7.784-16.59,1.165-17.921,3.847C18.409,24.318,14.4,49.701,30.517,51.185z"/>
</g>
</svg>
