<?xml version="1.0" encoding="utf-8"?>
<!-- Generator: Adobe Illustrator 16.0.0, SVG Export Plug-In . SVG Version: 6.00 Build 0)  -->
<!DOCTYPE svg PUBLIC "-//W3C//DTD SVG 1.1//EN" "http://www.w3.org/Graphics/SVG/1.1/DTD/svg11.dtd">
<svg version="1.1" id="Capa_1" xmlns="http://www.w3.org/2000/svg" xmlns:xlink="http://www.w3.org/1999/xlink" x="0px" y="0px"
	 width="94px" height="94px" viewBox="0 0 94 94" enable-background="new 0 0 94 94" xml:space="preserve">
<g>
	<circle fill-rule="evenodd" clip-rule="evenodd" fill="#FF7A5A" cx="46.5" cy="46.999" r="46"/>
	<g>
		<defs>
			<circle id="SVGID_11_" cx="46.5" cy="46.999" r="46"/>
		</defs>
		<clipPath id="SVGID_2_">
			<use xlink:href="#SVGID_11_"  overflow="visible"/>
		</clipPath>
		<g clip-path="url(#SVGID_2_)">
			<defs>
				<circle id="SVGID_13_" cx="49.5" cy="47.999" r="46"/>
			</defs>
			<clipPath id="SVGID_4_">
				<use xlink:href="#SVGID_13_"  overflow="visible"/>
			</clipPath>
			<polygon opacity="0.14" clip-path="url(#SVGID_4_)" points="35.969,71.78 79.667,93.999 105.333,47.499 53.729,21.22 
				56.229,24.688 56.485,27.424 57.667,30.083 38.625,20.624 43,30.249 41.656,35.78 26.813,28.655 28.406,30.968 30.313,36.749 
				29.813,42.312 26.125,49.812 24.313,55.749 24,60.916 25,63.312 34.733,68.254 34.932,69.595 			"/>
		</g>
	</g>
	<g>
		<path fill="#FFFFFF" d="M60.917,44.365c2.4-5.265,2.905-10.871-0.184-16.085c-1.773-2.993-4.682-5.077-6.504-7.88
			c6.956,10.695,0.619,21.928-4.442,31.66c-3.237,6.23-1.86,13.733,1.893,19.372c-1.076-1.648-0.225-5.313,0.141-7.047
			c0.686-3.249,1.925-6.384,3.353-9.372C56.867,51.469,59.242,48.045,60.917,44.365z"/>
		<path fill="#FFFFFF" d="M32.318,44.863c1.629-3.571,1.972-7.377-0.124-10.916c-1.204-2.031-3.177-3.444-4.415-5.347
			c4.72,7.258,0.42,14.882-3.015,21.486c-2.196,4.228-1.262,9.319,1.284,13.146c-0.729-1.115-0.151-3.606,0.098-4.782
			c0.465-2.205,1.306-4.331,2.274-6.36C29.57,49.684,31.182,47.36,32.318,44.863z"/>
		<path fill="#FFFFFF" d="M72.867,44.863c1.628-3.571,1.971-7.377-0.125-10.916c-1.204-2.031-3.177-3.444-4.415-5.347
			c4.721,7.258,0.42,14.882-3.015,21.486c-2.195,4.228-1.262,9.319,1.285,13.146c-0.729-1.115-0.152-3.606,0.097-4.782
			c0.465-2.205,1.306-4.331,2.274-6.36C70.117,49.684,71.729,47.36,72.867,44.863z"/>
		<path fill="#FFFFFF" d="M46.114,44.365c2.4-5.265,2.905-10.871-0.184-16.085c-1.773-2.993-4.682-5.077-6.504-7.88
			c6.956,10.695,0.619,21.928-4.442,31.66c-3.237,6.23-1.86,13.733,1.893,19.372c-1.076-1.648-0.225-5.313,0.141-7.047
			c0.686-3.249,1.925-6.384,3.353-9.372C42.063,51.469,44.439,48.045,46.114,44.365z"/>
	</g>
</g>
</svg>
